<svg height="512pt" viewBox="0 0 512 512" width="512pt" xmlns="http://www.w3.org/2000/svg"><path d="m439.671875 256c-41.285156 56.683594-108.167969 93.539062-183.671875 93.539062-9.582031 0-19.03125-.597656-28.296875-1.742187-63.773437-7.929687-119.332031-42.308594-155.375-91.796875 32.65625-44.832031 81.324219-77.265625 137.601563-88.855469 14.875-3.070312 30.285156-4.683593 46.070312-4.683593 75.503906 0 142.386719 36.855468 183.671875 93.539062zm0 0" fill="#d8edf7"/><path d="m227.703125 347.796875c-63.773437-7.929687-119.332031-42.308594-155.375-91.796875 32.65625-44.832031 81.324219-77.265625 137.601563-88.855469-58.011719 23.59375-108.796876 130.414063 17.773437 180.652344zm0 0" fill="#a8c3cf"/><path d="m328.441406 216.40625c0 11.90625-9.652344 21.554688-21.554687 21.554688-11.902344 0-21.550781-9.648438-21.550781-21.554688 0-11.902344 9.648437-21.550781 21.550781-21.550781 11.902343 0 21.554687 9.648437 21.554687 21.550781zm0 0" fill="#fff"/><path d="m319.660156 256c0 35.160156-28.5 63.660156-63.660156 63.660156s-63.660156-28.5-63.660156-63.660156 28.5-63.660156 63.660156-63.660156c12.695312 0 24.523438 3.71875 34.460938 10.128906 12.035156 7.753906 21.28125 19.464844 25.914062 33.292969 2.128906 6.359375 3.285156 13.160156 3.285156 20.238281zm0 0" fill="#3a3d51"/><path d="m316.375 235.761719c-2.859375 1.410156-6.082031 2.203125-9.488281 2.203125-11.902344 0-21.554688-9.652344-21.554688-21.554688 0-5.324218 1.925781-10.179687 5.128907-13.941406 12.035156 7.753906 21.28125 19.464844 25.914062 33.292969zm0 0" fill="#65687f"/><path d="m256 7.605469c-137.1875 0-248.394531 111.207031-248.394531 248.394531s111.207031 248.394531 248.394531 248.394531 248.394531-111.207031 248.394531-248.394531-111.207031-248.394531-248.394531-248.394531zm-203.714844 248.394531c0-69.039062 34.351563-130.050781 86.890625-166.894531l194.460938 355.277343c-23.925781 9.871094-50.144531 15.332032-77.636719 15.332032-112.507812 0-203.714844-91.207032-203.714844-203.714844zm320.53125 166.898438-194.460937-355.277344c23.929687-9.875 50.148437-15.335938 77.644531-15.335938 112.507812 0 203.703125 91.207032 203.703125 203.714844 0 69.042969-34.347656 130.054688-86.886719 166.898438zm0 0" fill="#ff5a73"/><path d="m256 44.679688c-27.859375 0-54.960938 5.355468-80.546875 15.910156-1.996094.824218-3.550781 2.460937-4.269531 4.5-.71875 2.039062-.535156 4.285156.5 6.179687l194.464844 355.277344c1.039062 1.898437 2.835937 3.261719 4.941406 3.753906.574218.136719 1.152344.199219 1.730468.199219 1.546876 0 3.074219-.472656 4.367188-1.378906 56.429688-39.574219 90.121094-104.292969 90.121094-173.121094 0-116.523438-94.792969-211.320312-211.308594-211.320312zm49.015625 238.503906-45.496094-83.117188c29.273438 1.824219 52.535157 26.207032 52.535157 55.933594 0 9.578125-2.460938 18.921875-7.039063 27.183594zm70.304687 128.445312-37.796874-69.050781c42.964843-15.964844 81.164062-44.859375 108.292968-82.101563 1.945313-2.667968 1.945313-6.285156 0-8.953124-16.078125-22.078126-35.691406-41.042969-58.289062-56.363282-3.480469-2.355468-8.207032-1.449218-10.5625 2.027344-2.355469 3.476562-1.449219 8.203125 2.027344 10.5625 19.597656 13.285156 36.792968 29.5 51.183593 48.246094-25.582031 33.273437-60.75 58.949218-100.042969 73.082031l-16.824218-30.738281c9.023437-12.214844 13.953125-27.046875 13.953125-42.339844 0-39.292969-31.96875-71.261719-71.261719-71.261719-1.601562 0-3.199219.054688-4.785156.160157l-7.917969-14.464844c4.21875-.238282 8.460937-.367188 12.703125-.367188 34.292969 0 67.152344 7.695313 97.664062 22.867188 1.089844.542968 2.242188.800781 3.378907.796875 2.796875 0 5.488281-1.546875 6.816406-4.21875 1.871094-3.761719.335937-8.324219-3.421875-10.195313-32.632812-16.230468-67.769531-24.457031-104.4375-24.457031-6.941406 0-13.886719.316406-20.726562.914063l-46.085938-84.199219c21.378906-7.757813 43.8125-11.683594 66.8125-11.683594 108.128906 0 196.101562 87.972656 196.101562 196.109375 0 61.03125-28.546874 118.585938-76.78125 155.628906zm0 0"/><path d="m145.84375 85.457031c-1.039062-1.898437-2.835938-3.261719-4.945312-3.753906-2.105469-.492187-4.320313-.0625-6.089844 1.179687-56.4375 39.574219-90.128906 104.292969-90.128906 173.117188 0 44.945312 13.925781 87.867188 40.273437 124.125 2.46875 3.398438 7.226563 4.152344 10.621094 1.683594 3.398437-2.46875 4.152343-7.222656 1.683593-10.621094-24.449218-33.644531-37.367187-73.476562-37.367187-115.1875 0-61.03125 28.546875-118.582031 76.78125-155.625l37.792969 69.046875c-42.957032 15.960937-81.152344 44.859375-108.28125 82.101563-1.945313 2.667968-1.945313 6.285156 0 8.953124 21.335937 29.296876 49.566406 53.605469 81.640625 70.296876 33.148437 17.25 70.558593 26.371093 108.175781 26.371093 6.933594 0 13.875-.316406 20.71875-.917969l46.089844 84.203126c-21.367188 7.757812-43.800782 11.683593-66.808594 11.683593-52.988281 0-102.640625-20.804687-139.804688-58.582031-2.945312-2.992188-7.761718-3.035156-10.753906-.085938-2.992187 2.945313-3.03125 7.757813-.085937 10.75 40.046875 40.707032 93.546875 63.125 150.644531 63.125 27.875 0 54.972656-5.351562 80.542969-15.90625 2-.824218 3.550781-2.460937 4.269531-4.496093.71875-2.039063.539062-4.289063-.5-6.183594zm61.136719 143.371094 45.492187 83.105469c-29.269531-1.828125-52.527344-26.210938-52.527344-55.933594 0-9.574219 2.457032-18.917969 7.035157-27.171875zm49.019531 113.105469c-35.1875 0-70.164062-8.523438-101.15625-24.652344-28.351562-14.753906-53.492188-35.871094-73.019531-61.28125 25.582031-33.269531 60.746093-58.949219 100.03125-73.074219l16.832031 30.746094c-9.023438 12.203125-13.953125 27.035156-13.953125 42.328125 0 39.296875 31.96875 71.265625 71.265625 71.265625 1.597656 0 3.191406-.058594 4.773438-.164063l7.921874 14.464844c-4.21875.242188-8.457031.367188-12.695312.367188zm0 0"/><path d="m437.019531 74.980469c-48.351562-48.351563-112.640625-74.980469-181.019531-74.980469s-132.667969 26.628906-181.019531 74.980469c-48.351563 48.351562-74.980469 112.640625-74.980469 181.019531s26.628906 132.667969 74.980469 181.019531c48.351562 48.351563 112.640625 74.980469 181.019531 74.980469s132.667969-26.628906 181.019531-74.980469c48.351563-48.351562 74.980469-112.640625 74.980469-181.019531s-26.628906-132.667969-74.980469-181.019531zm-10.753906 351.285156c-45.480469 45.480469-105.949219 70.527344-170.265625 70.527344s-124.785156-25.046875-170.265625-70.527344-70.527344-105.949219-70.527344-170.265625 25.046875-124.785156 70.527344-170.265625 105.949219-70.527344 170.265625-70.527344 124.785156 25.046875 170.265625 70.527344 70.527344 105.949219 70.527344 170.265625-25.046875 124.785156-70.527344 170.265625zm0 0"/></svg>