<svg height="512" viewBox="0 0 256 256" width="512" xmlns="http://www.w3.org/2000/svg"><path d="m187.969 91.89h-119.939l33.939-58.79a30.057 30.057 0 0 1 52.061 0z" fill="#fc5d3d"/><path d="m220.219 237.93h-184.439a30.06 30.06 0 0 1 -26.041-45.09l31.081-53.84a43.357 43.357 0 0 0 39.289 25.09h21.411a17.022 17.022 0 0 0 13.25-6.34 16.979 16.979 0 0 1 26.48 0 17.007 17.007 0 0 0 13.25 6.34h21.39a43.357 43.357 0 0 0 39.289-25.09l31.081 53.84a30.06 30.06 0 0 1 -26.041 45.09z" fill="#fc5d3d"/><path d="m168.349 91.89h-80.699l29.039-50.29a13.039 13.039 0 0 1 22.621 0z" fill="#f0c020"/><path d="m220.219 220.93h-184.439a13.044 13.044 0 0 1 -11.321-19.59l27.51-47.65a43.065 43.065 0 0 0 28.14 10.4h21.411a17.022 17.022 0 0 0 13.25-6.34 16.979 16.979 0 0 1 26.48 0 17.007 17.007 0 0 0 13.25 6.34h21.39a43.063 43.063 0 0 0 28.14-10.4l27.51 47.65a13.044 13.044 0 0 1 -11.321 19.59z" fill="#f0c020"/><path d="m208.07 91.89h-160.141a11.1 11.1 0 0 0 -11.1 11.1v17.83a43.284 43.284 0 0 0 43.279 43.27h21.412a17.022 17.022 0 0 0 13.25-6.34 16.979 16.979 0 0 1 26.48 0 17.007 17.007 0 0 0 13.25 6.34h21.39a43.23 43.23 0 0 0 43.279-43.27v-17.83a11.1 11.1 0 0 0 -11.099-11.1z" fill="#7c7b7a"/><path d="m67.506 115.963a20.3 20.3 0 1 0 39.975 7.048z" fill="#fff"/><path d="m188.493 115.963a20.3 20.3 0 1 1 -39.975 7.048z" fill="#fff"/><path d="m220.219 212.43h-184.439a2.5 2.5 0 0 1 0-5h183.682l-26.807-46.44a2.5 2.5 0 1 1 4.33-2.5l27.189 47.1a4.533 4.533 0 0 1 -3.955 6.84z" fill="#f9e5af"/><path d="m153.474 93.14-7.83-13.57a2.5 2.5 0 1 1 4.33-2.5l7.83 13.57a2.5 2.5 0 1 1 -4.33 2.5z" fill="#f9e5af"/><path d="m101.049 68.68a2.557 2.557 0 0 0 -3.41.92 2.5 2.5 0 1 0 3.41-.92z"/><circle cx="54.069" cy="91.89" r="2.5"/><path d="m100.047 174.823h-9.736a2.5 2.5 0 0 0 -2.5 2.5v23.151a2.5 2.5 0 0 0 5 0v-6.334h5.955l5.606 7.793a2.5 2.5 0 1 0 4.058-2.919l-4.247-5.905a8.858 8.858 0 0 0 4.718-7.822v-1.611a8.863 8.863 0 0 0 -8.854-8.853zm3.854 10.464a3.858 3.858 0 0 1 -3.854 3.853h-7.236v-9.317h7.236a3.858 3.858 0 0 1 3.854 3.853z"/><path d="m127.222 174.823a10.557 10.557 0 0 0 -10.545 10.544v15.107a2.5 2.5 0 0 0 5 0v-6.334h11.09v6.334a2.5 2.5 0 0 0 5 0v-15.107a10.556 10.556 0 0 0 -10.545-10.544zm5.545 14.317h-11.09v-3.773a5.545 5.545 0 0 1 11.09 0z"/><path d="m77.534 179.823a2.5 2.5 0 1 0 0-5h-14.534a2.5 2.5 0 0 0 -2.5 2.5v23.151a2.5 2.5 0 0 0 5 0v-8.556h12.034a2.5 2.5 0 0 0 0-5h-12.034v-7.095z"/><path d="m184.955 174.823h-8.045a2.5 2.5 0 0 0 -2.5 2.5v23.151a2.5 2.5 0 0 0 2.5 2.5h8.045a10.558 10.558 0 0 0 10.545-10.545v-7.062a10.557 10.557 0 0 0 -10.545-10.544zm5.545 17.606a5.551 5.551 0 0 1 -5.545 5.545h-5.545v-18.151h5.545a5.551 5.551 0 0 1 5.545 5.544z"/><path d="m164.133 174.823a2.5 2.5 0 0 0 -2.5 2.5v15.106a5.545 5.545 0 1 1 -11.09 0v-15.106a2.5 2.5 0 1 0 -5 0v15.106a10.545 10.545 0 0 0 21.09 0v-15.106a2.5 2.5 0 0 0 -2.5-2.5z"/><path d="m188.929 237.93a2.5 2.5 0 1 0 2.5-2.5 2.5 2.5 0 0 0 -2.5 2.5z"/><path d="m220.219 235.43h-18.79a2.5 2.5 0 0 0 0 5h18.811c25.047 0 40.727-27.171 28.179-48.84l-30.45-52.743a45.4 45.4 0 0 0 3.7-18.027v-17.83a13.614 13.614 0 0 0 -13.6-13.6h-18.661l-33.219-57.54c-12.5-21.686-43.861-21.727-56.39 0l-33.208 57.54h-2.522a2.5 2.5 0 0 0 0 5h144a8.638 8.638 0 0 1 8.6 8.6v17.83a40.776 40.776 0 0 1 -40.78 40.77h-21.389a14.44 14.44 0 0 1 -11.3-5.41 19.487 19.487 0 0 0 -30.381 0 14.525 14.525 0 0 1 -11.3 5.41h-21.41a40.781 40.781 0 0 1 -40.779-40.77v-17.83a8.639 8.639 0 0 1 5.67-8.09 2.5 2.5 0 0 0 1.5-3.2 2.549 2.549 0 0 0 -3.191-1.5h-.019a13.646 13.646 0 0 0 -8.96 12.79v17.83a45.4 45.4 0 0 0 3.7 18.026l-30.461 52.744c-12.51 21.678 3.1 48.84 28.19 48.84h145.67a2.5 2.5 0 1 0 0-5h-145.649a27.556 27.556 0 0 1 -23.88-41.34l28.823-49.923a45.271 45.271 0 0 0 8.077 10.026l-26.51 45.897a15.556 15.556 0 0 0 13.49 23.34h184.439a15.55 15.55 0 0 0 13.481-23.34l-26.491-45.9a46.286 46.286 0 0 0 8.057-10.024l28.823 49.924a27.558 27.558 0 0 1 -23.87 41.34zm-50.432-146.04-28.318-49.04a15.545 15.545 0 0 0 -26.95 0l-11.88 20.58a2.509 2.509 0 0 0 .91 3.42 2.578 2.578 0 0 0 3.42-.91l11.89-20.59a10.529 10.529 0 0 1 18.29 0l26.87 46.54h-72.04l4.98-8.63a2.5 2.5 0 0 0 -.91-3.42 2.557 2.557 0 0 0 -3.41.92l-6.427 11.13h-13.853l31.77-55.04a27.565 27.565 0 0 1 47.741 0l31.769 55.04zm59.592 113.2a10.563 10.563 0 0 1 -9.16 15.84h-184.439a10.562 10.562 0 0 1 -9.16-15.84l26.061-45.141a45.7 45.7 0 0 0 27.428 9.141h21.41a19.531 19.531 0 0 0 15.2-7.28 14.485 14.485 0 0 1 22.58.01 19.424 19.424 0 0 0 15.2 7.27h21.389a45.763 45.763 0 0 0 27.431-9.137z"/><path d="m109.943 123.446a2.5 2.5 0 0 0 -2.027-2.9l-39.976-7.046a2.5 2.5 0 0 0 -2.9 2.028 22.8 22.8 0 0 0 44.9 7.917zm-40.237-4.557 34.709 6.121a17.8 17.8 0 0 1 -34.709-6.121z"/><path d="m172.464 141.937a22.823 22.823 0 0 0 18.492-26.408 2.5 2.5 0 0 0 -2.9-2.028l-39.976 7.049a2.5 2.5 0 0 0 -2.027 2.9 22.784 22.784 0 0 0 26.411 18.487zm13.829-23.048a17.8 17.8 0 0 1 -34.709 6.121z"/><path d="m133.083 69.792a2.5 2.5 0 0 0 2.5-2.5v-13a2.5 2.5 0 0 0 -5 0v13a2.5 2.5 0 0 0 2.5 2.5z"/><path d="m133.083 80.417a2.5 2.5 0 0 0 2.5-2.5v-1.75a2.5 2.5 0 0 0 -5 0v1.75a2.5 2.5 0 0 0 2.5 2.5z"/><path d="m122.917 69.792a2.5 2.5 0 0 0 2.5-2.5v-13a2.5 2.5 0 0 0 -5 0v13a2.5 2.5 0 0 0 2.5 2.5z"/><path d="m122.917 80.417a2.5 2.5 0 0 0 2.5-2.5v-1.75a2.5 2.5 0 0 0 -5 0v1.75a2.5 2.5 0 0 0 2.5 2.5z"/><g fill="#afafaf"><path d="m206.88 130.21a2.5 2.5 0 0 0 -3.24 1.42 30.019 30.019 0 0 1 -27.75 18.96h-21.39a3.478 3.478 0 0 1 -2.73-1.3 30.476 30.476 0 0 0 -47.52 0 3.475 3.475 0 0 1 -2.72 1.3h-21.421a29.78 29.78 0 0 1 -29.779-29.78v-17.92a2.5 2.5 0 0 0 -2.5-2.5 2.5 2.5 0 0 0 -2.5 2.5v17.93a34.814 34.814 0 0 0 34.779 34.77h21.421a8.43 8.43 0 0 0 6.61-3.17 25.5 25.5 0 0 1 39.74 0 8.433 8.433 0 0 0 6.62 3.17h21.39a35.046 35.046 0 0 0 32.4-22.14 2.5 2.5 0 0 0 -1.41-3.24z"/><path d="m208.169 118.317a2.5 2.5 0 0 0 -2.5 2.5q0 .93-.055 1.846a2.5 2.5 0 0 0 2.344 2.647h.153a2.5 2.5 0 0 0 2.493-2.349q.064-1.067.065-2.149a2.5 2.5 0 0 0 -2.5-2.495z"/></g></svg>