<?xml version="1.0"?>
<svg xmlns="http://www.w3.org/2000/svg" viewBox="0 0 64 64" width="512" height="512"><g id="flat"><path d="M53,57a4,4,0,0,1-4,4H11V7a4,4,0,0,1,4-4H57a4,4,0,0,0-4,4Z" style="fill:#87ced9"/><path d="M57,3h0a4,4,0,0,1,4,4V9a0,0,0,0,1,0,0H53a0,0,0,0,1,0,0V7a4,4,0,0,1,4-4Z" style="fill:#e8594a"/><path d="M48.135,44.447A54.407,54.407,0,0,0,35,44.36h0c-1.677.191-3.346.453-5,.8V46l-8-3-6.713,4.8L15,48l7,5,8-3v.839c1,.209,2,.38,3,.532h0c.665.1,1.331.192,2,.268h0a54.407,54.407,0,0,0,13.135-.087L53,50.925v-5.85Z" style="fill:#73bec9"/><path d="M3,55H45v2a4,4,0,0,0,4,4H7a4,4,0,0,1-4-4Z" style="fill:#e8594a"/><path d="M23,11v3.2a12,12,0,0,0,7.126,10.965L32,26l1.874-.833A12,12,0,0,0,41,14.2V11h0a15,15,0,0,1-9-3h0a15,15,0,0,1-9,3Z" style="fill:#4398d1"/><rect x="31" y="12" width="2" height="2" style="fill:#5ea9db"/><rect x="34" y="19" width="2" height="2" style="fill:#5ea9db"/><rect x="26" y="14" width="2" height="2" style="fill:#5ea9db"/><rect x="36" y="14" width="2" height="2" style="fill:#5ea9db"/><rect x="28" y="19" width="2" height="2" style="fill:#5ea9db"/><rect x="17" y="30" width="30" height="2" style="fill:#73bec9"/><rect x="17" y="35" width="11" height="2" style="fill:#73bec9"/><rect x="30" y="35" width="17" height="2" style="fill:#73bec9"/><rect x="17" y="25" width="7" height="2" style="fill:#73bec9"/><rect x="40" y="25" width="7" height="2" style="fill:#73bec9"/><path d="M61,47.893l-12.865,1.66A54.364,54.364,0,0,1,30,48.839h0V43.161h0a54.364,54.364,0,0,1,18.135-.714L61,44.107Z" style="fill:#7a3e1a"/><path d="M47.4,46.5A61.156,61.156,0,0,1,30,46.238v2.6a54.364,54.364,0,0,0,18.135.714L61,47.893V44.742Z" style="fill:#703918"/><polygon points="30 44 22 41 15 46 22 51 30 48 30 44" style="fill:#fdbb3d"/><path d="M15.287,45.8,15,46l7,5,8-3V45.676A104.268,104.268,0,0,1,15.287,45.8Z" style="fill:#fdaf33"/><path d="M22,48a2,2,0,1,1,2-2A2,2,0,0,1,22,48Zm0-2h0Z" style="fill:#f58616"/><polygon points="22 45 16.4 45 15 46 16.4 47 22 47 22 45" style="fill:#f58616"/><path d="M33,42.629v6.742c.665.1,1.332.193,2,.269V42.36C34.332,42.436,33.665,42.527,33,42.629Z" style="fill:#d6d6d4"/></g></svg>
